<mxfile host="Electron" agent="Mozilla/5.0 (Macintosh; Intel Mac OS X 10_15_7) AppleWebKit/537.36 (KHTML, like Gecko) draw.io/24.7.17 Chrome/128.0.6613.36 Electron/32.0.1 Safari/537.36" version="24.7.17">
  <diagram name="Page-1" id="0bqHVq1Fv5W45TvYdVPq">
    <mxGraphModel dx="794" dy="508" grid="1" gridSize="10" guides="1" tooltips="1" connect="1" arrows="1" fold="1" page="1" pageScale="1" pageWidth="827" pageHeight="1169" math="0" shadow="0">
      <root>
        <mxCell id="0" />
        <mxCell id="1" parent="0" />
        <mxCell id="NUiQqkiCnRwiUVuiuN8u-3" value="" style="edgeStyle=orthogonalEdgeStyle;rounded=0;orthogonalLoop=1;jettySize=auto;html=1;" edge="1" parent="1" source="NUiQqkiCnRwiUVuiuN8u-1">
          <mxGeometry relative="1" as="geometry">
            <mxPoint x="354" y="150" as="targetPoint" />
          </mxGeometry>
        </mxCell>
        <mxCell id="NUiQqkiCnRwiUVuiuN8u-1" value="Start&amp;nbsp;" style="ellipse;whiteSpace=wrap;html=1;fillColor=#d5e8d4;strokeColor=#82b366;" vertex="1" parent="1">
          <mxGeometry x="294" y="20" width="120" height="80" as="geometry" />
        </mxCell>
        <mxCell id="NUiQqkiCnRwiUVuiuN8u-5" value="" style="edgeStyle=orthogonalEdgeStyle;rounded=0;orthogonalLoop=1;jettySize=auto;html=1;" edge="1" parent="1" target="NUiQqkiCnRwiUVuiuN8u-4">
          <mxGeometry relative="1" as="geometry">
            <mxPoint x="354" y="230" as="sourcePoint" />
          </mxGeometry>
        </mxCell>
        <mxCell id="NUiQqkiCnRwiUVuiuN8u-7" value="" style="edgeStyle=orthogonalEdgeStyle;rounded=0;orthogonalLoop=1;jettySize=auto;html=1;" edge="1" parent="1" source="NUiQqkiCnRwiUVuiuN8u-4" target="NUiQqkiCnRwiUVuiuN8u-6">
          <mxGeometry relative="1" as="geometry" />
        </mxCell>
        <mxCell id="NUiQqkiCnRwiUVuiuN8u-14" value="" style="edgeStyle=orthogonalEdgeStyle;rounded=0;orthogonalLoop=1;jettySize=auto;html=1;" edge="1" parent="1" source="NUiQqkiCnRwiUVuiuN8u-4" target="NUiQqkiCnRwiUVuiuN8u-13">
          <mxGeometry relative="1" as="geometry" />
        </mxCell>
        <mxCell id="NUiQqkiCnRwiUVuiuN8u-4" value="if (driv (PAss)" style="rhombus;whiteSpace=wrap;html=1;fontStyle=1;fillColor=#dae8fc;strokeColor=#6c8ebf;" vertex="1" parent="1">
          <mxGeometry x="200.5" y="280" width="307" height="240" as="geometry" />
        </mxCell>
        <mxCell id="NUiQqkiCnRwiUVuiuN8u-17" value="" style="edgeStyle=orthogonalEdgeStyle;rounded=0;orthogonalLoop=1;jettySize=auto;html=1;" edge="1" parent="1" source="NUiQqkiCnRwiUVuiuN8u-6" target="NUiQqkiCnRwiUVuiuN8u-15">
          <mxGeometry relative="1" as="geometry">
            <Array as="points">
              <mxPoint x="680" y="640" />
              <mxPoint x="635" y="640" />
            </Array>
          </mxGeometry>
        </mxCell>
        <mxCell id="NUiQqkiCnRwiUVuiuN8u-6" value="Alarm off" style="rounded=0;whiteSpace=wrap;html=1;" vertex="1" parent="1">
          <mxGeometry x="620" y="360" width="120" height="60" as="geometry" />
        </mxCell>
        <mxCell id="NUiQqkiCnRwiUVuiuN8u-9" value="Fasle" style="text;html=1;align=center;verticalAlign=middle;whiteSpace=wrap;rounded=0;" vertex="1" parent="1">
          <mxGeometry x="530" y="350" width="60" height="30" as="geometry" />
        </mxCell>
        <mxCell id="NUiQqkiCnRwiUVuiuN8u-12" style="edgeStyle=orthogonalEdgeStyle;rounded=0;orthogonalLoop=1;jettySize=auto;html=1;exitX=0;exitY=0.75;exitDx=0;exitDy=0;entryX=0;entryY=0.25;entryDx=0;entryDy=0;" edge="1" parent="1">
          <mxGeometry relative="1" as="geometry">
            <mxPoint x="340" y="352.5" as="sourcePoint" />
            <mxPoint x="340" y="337.5" as="targetPoint" />
          </mxGeometry>
        </mxCell>
        <mxCell id="NUiQqkiCnRwiUVuiuN8u-18" value="" style="edgeStyle=orthogonalEdgeStyle;rounded=0;orthogonalLoop=1;jettySize=auto;html=1;" edge="1" parent="1" source="NUiQqkiCnRwiUVuiuN8u-13" target="NUiQqkiCnRwiUVuiuN8u-15">
          <mxGeometry relative="1" as="geometry" />
        </mxCell>
        <mxCell id="NUiQqkiCnRwiUVuiuN8u-13" value="Alarm ON" style="rounded=0;whiteSpace=wrap;html=1;" vertex="1" parent="1">
          <mxGeometry x="294" y="590" width="120" height="60" as="geometry" />
        </mxCell>
        <mxCell id="NUiQqkiCnRwiUVuiuN8u-19" value="" style="edgeStyle=orthogonalEdgeStyle;rounded=0;orthogonalLoop=1;jettySize=auto;html=1;" edge="1" parent="1" source="NUiQqkiCnRwiUVuiuN8u-15" target="NUiQqkiCnRwiUVuiuN8u-16">
          <mxGeometry relative="1" as="geometry" />
        </mxCell>
        <mxCell id="NUiQqkiCnRwiUVuiuN8u-15" value="" style="ellipse;whiteSpace=wrap;html=1;aspect=fixed;fillColor=#f8cecc;strokeColor=#b85450;" vertex="1" parent="1">
          <mxGeometry x="329" y="680" width="50" height="50" as="geometry" />
        </mxCell>
        <mxCell id="NUiQqkiCnRwiUVuiuN8u-16" value="End" style="ellipse;whiteSpace=wrap;html=1;fillColor=#d5e8d4;strokeColor=#82b366;" vertex="1" parent="1">
          <mxGeometry x="294" y="760" width="120" height="80" as="geometry" />
        </mxCell>
        <mxCell id="NUiQqkiCnRwiUVuiuN8u-20" value="True" style="text;html=1;align=center;verticalAlign=middle;whiteSpace=wrap;rounded=0;" vertex="1" parent="1">
          <mxGeometry x="340" y="530" width="60" height="30" as="geometry" />
        </mxCell>
        <mxCell id="NUiQqkiCnRwiUVuiuN8u-22" value="Acquire Drive.pass, ``belt" style="rounded=0;whiteSpace=wrap;html=1;" vertex="1" parent="1">
          <mxGeometry x="265" y="150" width="210" height="80" as="geometry" />
        </mxCell>
      </root>
    </mxGraphModel>
  </diagram>
</mxfile>
